HIERARCHY
ROOT Hips
{
	OFFSET 0.000000 1.471914 24.280096
	CHANNELS 6 Xposition Yposition Zposition Xrotation Yrotation Zrotation
	JOINT Spine
	{
		OFFSET 0.000000 0.900110 1.860670
		CHANNELS 6 Xposition Yposition Zposition Xrotation Yrotation Zrotation
		JOINT Spine1
		{
			OFFSET 0.000000 0.400320 2.270309
			CHANNELS 6 Xposition Yposition Zposition Xrotation Yrotation Zrotation
			JOINT Spine2
			{
				OFFSET 0.000000 0.200920 2.296560
				CHANNELS 6 Xposition Yposition Zposition Xrotation Yrotation Zrotation
				JOINT Spine3
				{
					OFFSET 0.000000 0.000000 2.305330
					CHANNELS 6 Xposition Yposition Zposition Xrotation Yrotation Zrotation
					JOINT Neck
					{
						OFFSET 0.000000 -0.864490 6.051487
						CHANNELS 6 Xposition Yposition Zposition Xrotation Yrotation Zrotation
						JOINT Head
						{
							OFFSET 0.000000 -0.550429 3.121674
							CHANNELS 6 Xposition Yposition Zposition Xrotation Yrotation Zrotation
							End Site
							{
								OFFSET 0.000000 0.000000 3.731750
							}
						}
					}
					JOINT RightShoulder
					{
						OFFSET -0.788280 -1.313800 4.256718
						CHANNELS 6 Xposition Yposition Zposition Xrotation Yrotation Zrotation
						JOINT RightArm
						{
							OFFSET -3.915130 0.000000 0.000000
							CHANNELS 6 Xposition Yposition Zposition Xrotation Yrotation Zrotation
							JOINT RightForeArm
							{
								OFFSET -6.914910 0.000000 0.000000
								CHANNELS 6 Xposition Yposition Zposition Xrotation Yrotation Zrotation
								JOINT RightHand
								{
									OFFSET -6.096219 0.000000 0.000000
									CHANNELS 6 Xposition Yposition Zposition Xrotation Yrotation Zrotation
									JOINT RightHandEnd
									{
										OFFSET -1.749950 0.000000 0.000000
										CHANNELS 6 Xposition Yposition Zposition Xrotation Yrotation Zrotation
										End Site
										{
											OFFSET -1.749950 0.000000 0.000000
										}
									}
									JOINT RightHandThumb1
									{
										OFFSET -0.699980 -1.166630 -0.466648
										CHANNELS 6 Xposition Yposition Zposition Xrotation Yrotation Zrotation
										End Site
										{
											OFFSET -1.690319 -0.452920 0.000000
										}
									}
								}
							}
						}
					}
					JOINT LeftShoulder
					{
						OFFSET 0.788280 -1.313800 4.256718
						CHANNELS 6 Xposition Yposition Zposition Xrotation Yrotation Zrotation
						JOINT LeftArm
						{
							OFFSET 3.915130 0.000000 0.000000
							CHANNELS 6 Xposition Yposition Zposition Xrotation Yrotation Zrotation
							JOINT LeftForeArm
							{
								OFFSET 6.914910 0.000000 0.000000
								CHANNELS 6 Xposition Yposition Zposition Xrotation Yrotation Zrotation
								JOINT LeftHand
								{
									OFFSET 6.096219 0.000000 0.000000
									CHANNELS 6 Xposition Yposition Zposition Xrotation Yrotation Zrotation
									JOINT LeftHandEnd
									{
										OFFSET 1.749950 0.000000 0.000000
										CHANNELS 6 Xposition Yposition Zposition Xrotation Yrotation Zrotation
										End Site
										{
											OFFSET 1.749950 0.000000 0.000000
										}
									}
									JOINT LeftHandThumb1
									{
										OFFSET 0.699980 -1.166630 -0.466648
										CHANNELS 6 Xposition Yposition Zposition Xrotation Yrotation Zrotation
										End Site
										{
											OFFSET 1.690319 -0.452920 0.000000
										}
									}
								}
							}
						}
					}
				}
			}
		}
	}
	JOINT RightUpLeg
	{
		OFFSET -2.338570 -0.252550 -0.551512
		CHANNELS 6 Xposition Yposition Zposition Xrotation Yrotation Zrotation
		JOINT RightLeg
		{
			OFFSET 0.000000 0.000000 -10.744959
			CHANNELS 6 Xposition Yposition Zposition Xrotation Yrotation Zrotation
			JOINT RightFoot
			{
				OFFSET 0.000000 -0.000001 -10.930849
				CHANNELS 6 Xposition Yposition Zposition Xrotation Yrotation Zrotation
				JOINT RightToeBase
				{
					OFFSET 0.000000 -4.087269 -1.487650
					CHANNELS 6 Xposition Yposition Zposition Xrotation Yrotation Zrotation
					End Site
					{
						OFFSET 0.000000 -1.891870 0.000000
					}
				}
			}
		}
	}
	JOINT LeftUpLeg
	{
		OFFSET 2.338570 -0.252550 -0.551512
		CHANNELS 6 Xposition Yposition Zposition Xrotation Yrotation Zrotation
		JOINT LeftLeg
		{
			OFFSET 0.000000 0.000000 -10.744959
			CHANNELS 6 Xposition Yposition Zposition Xrotation Yrotation Zrotation
			JOINT LeftFoot
			{
				OFFSET 0.000000 -0.000001 -10.930849
				CHANNELS 6 Xposition Yposition Zposition Xrotation Yrotation Zrotation
				JOINT LeftToeBase
				{
					OFFSET 0.000000 -4.087269 -1.487650
					CHANNELS 6 Xposition Yposition Zposition Xrotation Yrotation Zrotation
					End Site
					{
						OFFSET 0.000000 -1.891870 0.000000
					}
				}
			}
		}
	}
}
MOTION
Frames: 4
Frame Time: 0.041667
0.000375 26.806034 40.796135 19.571890 -9.872501 -25.532429 -0.000002 0.900105 1.860672 -2.790181 -4.195615 -0.029340 0.000005 0.400311 2.270317 -0.000006 0.000000 0.000000 0.000008 0.200923 2.296568 -0.000003 -0.000001 -0.000001 0.000005 -0.000003 2.305340 0.000035 0.000001 4.934588 -0.000003 -0.864475 6.051485 -9.067368 -13.834525 -169.920080 0.000002 -0.550417 3.121689 -0.000000 -0.000000 0.000006 -0.788286 -1.313778 4.256730 -144.152085 51.704826 -46.208125 -3.915148 0.000006 -0.000000 0.000001 -0.000003 -0.000004 -6.914906 0.000005 0.000007 0.000014 0.000009 -18.176259 -6.096220 -0.000009 -0.000004 -0.000105 -0.000122 0.000003 -1.749964 0.000013 0.000004 -0.000003 0.000003 -0.000001 -0.699987 -1.166620 -0.466645 -0.000003 0.000001 -0.000002 0.788276 -1.313792 4.256737 -134.204461 -44.394566 40.419956 3.915128 0.000003 0.000008 0.000001 0.000004 -0.000001 6.914909 0.000020 -0.000009 0.000030 0.000034 34.015957 6.096229 0.000008 -0.000006 -0.000095 0.000134 -0.000026 1.749944 -0.000005 -0.000016 -0.000004 -0.000004 -0.000001 0.699968 -1.166623 -0.466658 -0.000008 -0.000003 0.000001 -2.338574 -0.252552 -0.551497 -20.265880 11.000639 -0.208237 0.000002 0.000000 -10.744960 106.608311 16.424990 11.444405 0.000003 0.000017 -10.930852 0.000002 -0.000010 -0.000007 0.000004 -4.087270 -1.487645 0.000006 -0.000000 0.000001 2.338569 -0.252556 -0.551495 -18.219639 -4.380549 -0.195989 -0.000001 0.000005 -10.744957 105.400576 9.315108 -3.814329 -0.000002 0.000008 -10.930838 0.000005 -0.000012 -0.000004 0.000001 -4.087270 -1.487667 0.000002 0.000001 -0.000000 
0.000343 26.806204 40.796555 20.343932 -10.738236 -28.162577 -0.000000 0.900104 1.860668 -2.146228 -2.332744 -0.132161 0.000003 0.400310 2.270311 -0.000006 0.000001 0.000003 0.000008 0.200920 2.296566 -0.000005 -0.000001 0.000003 0.000009 -0.000005 2.305332 0.000034 -0.000007 8.780970 0.000001 -0.864473 6.051475 -14.377478 -15.995762 -174.593405 0.000004 -0.550422 3.121689 0.000001 0.000001 0.000006 -0.788284 -1.313776 4.256722 -143.409507 47.833481 -46.735614 -3.915142 0.000004 0.000007 -0.000001 -0.000001 -0.000004 -6.914910 0.000009 0.000007 0.000015 0.000013 -16.328701 -6.096219 -0.000007 -0.000001 -0.000109 -0.000123 -0.000000 -1.749957 0.000009 -0.000001 -0.000004 0.000005 -0.000001 -0.699977 -1.166622 -0.466651 -0.000001 0.000001 -0.000003 0.788276 -1.313784 4.256726 -130.334667 -38.083861 46.649219 3.915137 0.000003 0.000011 0.000000 0.000003 -0.000003 6.914917 0.000018 -0.000009 0.000033 0.000028 27.768680 6.096234 0.000008 -0.000010 -0.000096 0.000133 -0.000027 1.749944 -0.000007 -0.000010 -0.000000 -0.000004 -0.000003 0.699970 -1.166625 -0.466656 0.000005 -0.000004 -0.000002 -2.338573 -0.252554 -0.551498 -19.969168 13.249957 -1.249925 0.000001 0.000000 -10.744965 113.610969 14.391801 15.359617 0.000005 0.000016 -10.930849 -0.000005 -0.000009 -0.000005 0.000005 -4.087274 -1.487643 0.000002 -0.000001 0.000001 2.338570 -0.252557 -0.551498 -17.893494 -4.739954 -1.095566 -0.000005 0.000008 -10.744954 105.284306 10.689362 -1.452129 -0.000000 0.000011 -10.930833 0.000003 -0.000012 -0.000005 0.000001 -4.087272 -1.487653 0.000002 0.000001 -0.000001 
0.000349 26.806217 40.796684 21.320461 -10.701014 -27.459959 0.000000 0.900109 1.860672 -2.909946 -2.673231 -0.208500 0.000003 0.400312 2.270317 -0.000006 0.000001 0.000000 0.000006 0.200925 2.296556 -0.000001 -0.000001 -0.000002 0.000006 -0.000005 2.305332 0.000034 -0.000002 6.789661 0.000000 -0.864484 6.051480 -15.524346 -21.222269 -169.545622 0.000003 -0.550423 3.121693 0.000002 0.000000 0.000003 -0.788285 -1.313788 4.256728 -140.843173 45.675944 -47.610899 -3.915149 0.000002 -0.000000 0.000000 0.000003 -0.000006 -6.914907 0.000010 0.000007 0.000015 0.000015 -15.828975 -6.096218 -0.000008 -0.000004 -0.000102 -0.000119 -0.000001 -1.749958 0.000013 0.000000 -0.000004 0.000003 -0.000001 -0.699982 -1.166619 -0.466649 -0.000005 -0.000001 -0.000001 0.788274 -1.313795 4.256732 -131.725171 -37.005678 43.058254 3.915138 -0.000006 0.000011 0.000000 0.000004 -0.000003 6.914921 0.000025 -0.000009 0.000031 0.000031 30.899789 6.096231 0.000007 -0.000006 -0.000096 0.000132 -0.000022 1.749941 -0.000007 -0.000010 -0.000000 -0.000005 -0.000006 0.699960 -1.166625 -0.466659 -0.000001 -0.000001 -0.000006 -2.338573 -0.252547 -0.551491 -17.604119 14.541112 -1.295835 -0.000003 -0.000000 -10.744962 111.842387 13.995916 17.298260 0.000004 0.000018 -10.930857 -0.000005 -0.000011 -0.000006 0.000005 -4.087271 -1.487641 0.000000 -0.000001 0.000002 2.338571 -0.252552 -0.551497 -18.358635 -4.285146 -1.305344 -0.000004 0.000006 -10.744956 103.677716 9.766611 -0.480200 -0.000004 0.000012 -10.930841 0.000005 -0.000011 -0.000003 -0.000001 -4.087275 -1.487656 0.000002 0.000001 0.000001 
0.000390 26.806232 40.796753 21.774667 -11.060533 -29.874626 -0.000002 0.900112 1.860664 -2.698805 -3.570822 -0.244427 0.000005 0.400310 2.270313 -0.000006 0.000001 -0.000001 0.000008 0.200919 2.296566 -0.000002 -0.000001 -0.000000 0.000004 -0.000005 2.305340 0.000034 0.000000 7.753259 0.000001 -0.864484 6.051476 -12.303246 -16.842412 -167.421392 0.000004 -0.550422 3.121681 -0.000001 0.000002 0.000004 -0.788283 -1.313785 4.256728 -130.957198 35.150735 -54.991311 -3.915151 0.000002 -0.000000 0.000002 -0.000005 -0.000004 -6.914916 0.000006 0.000007 0.000014 0.000012 -17.695799 -6.096219 -0.000009 0.000000 -0.000108 -0.000120 0.000003 -1.749961 0.000010 0.000003 -0.000001 0.000002 0.000002 -0.699982 -1.166623 -0.466646 0.000000 -0.000001 0.000001 0.788276 -1.313795 4.256729 -136.670501 -43.770605 40.481175 3.915141 0.000002 0.000008 0.000003 0.000003 0.000003 6.914920 0.000014 -0.000008 0.000031 0.000030 26.813257 6.096231 0.000008 -0.000006 -0.000096 0.000131 -0.000027 1.749940 -0.000005 -0.000018 -0.000003 -0.000005 -0.000004 0.699965 -1.166623 -0.466663 -0.000003 -0.000003 -0.000002 -2.338573 -0.252546 -0.551500 -18.708419 14.910913 -1.756170 -0.000002 -0.000002 -10.744965 112.258004 15.878773 18.556693 0.000006 0.000020 -10.930849 0.000000 -0.000011 -0.000009 0.000005 -4.087266 -1.487648 0.000000 0.000002 -0.000002 2.338570 -0.252554 -0.551506 -17.548460 -2.306046 -1.581973 -0.000003 0.000005 -10.744960 105.472690 20.206567 2.605203 -0.000002 0.000006 -10.930836 0.000003 -0.000013 -0.000004 0.000002 -4.087265 -1.487660 0.000005 0.000001 -0.000001 
